<svg xmlns="http://www.w3.org/2000/svg" width="900" height="260" viewBox="0 0 900 260">
<defs>
  <linearGradient id="fade" x1="0" y1="0" x2="0" y2="1">
    <stop offset="0" stop-color="#000" stop-opacity="1"/><stop offset=".25" stop-color="#000" stop-opacity="0"/>
    <stop offset=".75" stop-color="#000" stop-opacity="0"/><stop offset="1" stop-color="#000" stop-opacity="1"/>
  </linearGradient>
  <filter id="glow"><feGaussianBlur stdDeviation="3" result="b"/><feMerge><feMergeNode in="b"/><feMergeNode in="SourceGraphic"/></feMerge></filter>
</defs>
<style>
  .col{font:14px JetBrains Mono, Fira Code, Consolas, monospace;fill:#00ff9c;animation-name:fall;animation-iteration-count:infinite;animation-timing-function:linear}
  @keyframes fall{from{transform:translateY(0)}to{transform:translateY(560px)}}
  .gl1{animation:g1 3s infinite steps(1)} .gl2{animation:g2 3s infinite steps(1)}
  @keyframes g1{0%,88%{transform:translate(0,0)}90%{transform:translate(-4px,1px)}93%{transform:translate(3px,-1px)}96%{transform:translate(-2px,0)}100%{transform:translate(0,0)}}
  @keyframes g2{0%,88%{transform:translate(0,0)}90%{transform:translate(4px,-1px)}93%{transform:translate(-3px,1px)}96%{transform:translate(2px,0)}100%{transform:translate(0,0)}}
  .blink{animation:bl 1s infinite steps(1)} @keyframes bl{50%{opacity:0}}
  .scan{animation:sc 5s linear infinite} @keyframes sc{from{transform:translateY(-20px)}to{transform:translateY(280px)}}
</style>
<rect width="900" height="260" fill="#000"/>
<text class="col" style="animation-duration:4.2s;animation-delay:-3.9s;opacity:0.28" x="10" y="-250"><tspan x="10" dy="16">C</tspan><tspan x="10" dy="16">%</tspan><tspan x="10" dy="16">ｳ</tspan><tspan x="10" dy="16">1</tspan><tspan x="10" dy="16">A</tspan><tspan x="10" dy="16">;</tspan><tspan x="10" dy="16">B</tspan><tspan x="10" dy="16">#</tspan><tspan x="10" dy="16">ｱ</tspan><tspan x="10" dy="16">1</tspan><tspan x="10" dy="16">:</tspan><tspan x="10" dy="16">E</tspan></text><text class="col" style="animation-duration:6.9s;animation-delay:-0.6s;opacity:0.51" x="32" y="-250"><tspan x="32" dy="16">;</tspan><tspan x="32" dy="16">*</tspan><tspan x="32" dy="16">1</tspan><tspan x="32" dy="16">ｱ</tspan><tspan x="32" dy="16">B</tspan><tspan x="32" dy="16">F</tspan><tspan x="32" dy="16">ｳ</tspan><tspan x="32" dy="16">ｳ</tspan></text><text class="col" style="animation-duration:6.7s;animation-delay:-5.1s;opacity:0.50" x="54" y="-250"><tspan x="54" dy="16">F</tspan><tspan x="54" dy="16">1</tspan><tspan x="54" dy="16">;</tspan><tspan x="54" dy="16">C</tspan><tspan x="54" dy="16">|</tspan><tspan x="54" dy="16">*</tspan><tspan x="54" dy="16">C</tspan></text><text class="col" style="animation-duration:4.3s;animation-delay:-0.5s;opacity:0.34" x="76" y="-250"><tspan x="76" dy="16">B</tspan><tspan x="76" dy="16">ｱ</tspan><tspan x="76" dy="16">ｱ</tspan><tspan x="76" dy="16">ｳ</tspan><tspan x="76" dy="16">E</tspan><tspan x="76" dy="16">#</tspan><tspan x="76" dy="16">B</tspan><tspan x="76" dy="16">;</tspan><tspan x="76" dy="16">ｵ</tspan></text><text class="col" style="animation-duration:6.6s;animation-delay:-7.9s;opacity:0.58" x="98" y="-250"><tspan x="98" dy="16">$</tspan><tspan x="98" dy="16">+</tspan><tspan x="98" dy="16">ｱ</tspan><tspan x="98" dy="16">+</tspan><tspan x="98" dy="16">#</tspan><tspan x="98" dy="16">|</tspan><tspan x="98" dy="16">F</tspan><tspan x="98" dy="16">D</tspan><tspan x="98" dy="16">ｵ</tspan><tspan x="98" dy="16">F</tspan><tspan x="98" dy="16">A</tspan><tspan x="98" dy="16">ｱ</tspan><tspan x="98" dy="16">|</tspan></text><text class="col" style="animation-duration:8.8s;animation-delay:-0.7s;opacity:0.50" x="120" y="-250"><tspan x="120" dy="16">ｲ</tspan><tspan x="120" dy="16">A</tspan><tspan x="120" dy="16">B</tspan><tspan x="120" dy="16">:</tspan><tspan x="120" dy="16">*</tspan><tspan x="120" dy="16">D</tspan><tspan x="120" dy="16">$</tspan><tspan x="120" dy="16">C</tspan><tspan x="120" dy="16">=</tspan><tspan x="120" dy="16">*</tspan><tspan x="120" dy="16">1</tspan></text><text class="col" style="animation-duration:7.3s;animation-delay:-0.5s;opacity:0.57" x="142" y="-250"><tspan x="142" dy="16">$</tspan><tspan x="142" dy="16">ｵ</tspan><tspan x="142" dy="16">#</tspan><tspan x="142" dy="16">ｲ</tspan><tspan x="142" dy="16">=</tspan><tspan x="142" dy="16">ｱ</tspan><tspan x="142" dy="16">+</tspan><tspan x="142" dy="16">A</tspan><tspan x="142" dy="16">A</tspan><tspan x="142" dy="16">/</tspan><tspan x="142" dy="16">=</tspan><tspan x="142" dy="16">ｵ</tspan></text><text class="col" style="animation-duration:7.8s;animation-delay:-1.2s;opacity:0.36" x="164" y="-250"><tspan x="164" dy="16">|</tspan><tspan x="164" dy="16">ｵ</tspan><tspan x="164" dy="16">%</tspan><tspan x="164" dy="16">ｴ</tspan><tspan x="164" dy="16">#</tspan><tspan x="164" dy="16">0</tspan><tspan x="164" dy="16">+</tspan><tspan x="164" dy="16">#</tspan><tspan x="164" dy="16">D</tspan><tspan x="164" dy="16">ｲ</tspan><tspan x="164" dy="16">B</tspan><tspan x="164" dy="16">=</tspan><tspan x="164" dy="16">1</tspan><tspan x="164" dy="16">E</tspan></text><text class="col" style="animation-duration:8.9s;animation-delay:-6.1s;opacity:0.42" x="186" y="-250"><tspan x="186" dy="16">=</tspan><tspan x="186" dy="16">A</tspan><tspan x="186" dy="16">D</tspan><tspan x="186" dy="16">+</tspan><tspan x="186" dy="16">%</tspan><tspan x="186" dy="16">;</tspan><tspan x="186" dy="16">/</tspan><tspan x="186" dy="16">C</tspan><tspan x="186" dy="16">*</tspan><tspan x="186" dy="16">;</tspan><tspan x="186" dy="16">/</tspan><tspan x="186" dy="16">ｵ</tspan><tspan x="186" dy="16">*</tspan></text><text class="col" style="animation-duration:4.9s;animation-delay:-2.5s;opacity:0.32" x="208" y="-250"><tspan x="208" dy="16">C</tspan><tspan x="208" dy="16">A</tspan><tspan x="208" dy="16">D</tspan><tspan x="208" dy="16">C</tspan><tspan x="208" dy="16">F</tspan><tspan x="208" dy="16">ｴ</tspan><tspan x="208" dy="16">F</tspan><tspan x="208" dy="16">0</tspan><tspan x="208" dy="16">=</tspan><tspan x="208" dy="16">ｱ</tspan></text><text class="col" style="animation-duration:8.0s;animation-delay:-3.5s;opacity:0.43" x="230" y="-250"><tspan x="230" dy="16">ｲ</tspan><tspan x="230" dy="16">ｱ</tspan><tspan x="230" dy="16">$</tspan><tspan x="230" dy="16">C</tspan><tspan x="230" dy="16">ｵ</tspan><tspan x="230" dy="16">:</tspan><tspan x="230" dy="16">ｲ</tspan><tspan x="230" dy="16">ｳ</tspan><tspan x="230" dy="16">ｴ</tspan><tspan x="230" dy="16">1</tspan><tspan x="230" dy="16">+</tspan><tspan x="230" dy="16">ｴ</tspan></text><text class="col" style="animation-duration:4.8s;animation-delay:-3.1s;opacity:0.27" x="252" y="-250"><tspan x="252" dy="16">=</tspan><tspan x="252" dy="16">ｳ</tspan><tspan x="252" dy="16">%</tspan><tspan x="252" dy="16">1</tspan><tspan x="252" dy="16">E</tspan><tspan x="252" dy="16">A</tspan><tspan x="252" dy="16">E</tspan><tspan x="252" dy="16">+</tspan></text><text class="col" style="animation-duration:4.4s;animation-delay:-1.9s;opacity:0.42" x="274" y="-250"><tspan x="274" dy="16">ｱ</tspan><tspan x="274" dy="16">C</tspan><tspan x="274" dy="16">;</tspan><tspan x="274" dy="16">B</tspan><tspan x="274" dy="16">#</tspan><tspan x="274" dy="16">ｲ</tspan><tspan x="274" dy="16">0</tspan></text><text class="col" style="animation-duration:4.4s;animation-delay:-0.9s;opacity:0.40" x="296" y="-250"><tspan x="296" dy="16">#</tspan><tspan x="296" dy="16">ｲ</tspan><tspan x="296" dy="16">#</tspan><tspan x="296" dy="16">=</tspan><tspan x="296" dy="16">B</tspan><tspan x="296" dy="16">B</tspan><tspan x="296" dy="16">=</tspan><tspan x="296" dy="16">+</tspan><tspan x="296" dy="16">=</tspan><tspan x="296" dy="16">=</tspan><tspan x="296" dy="16">|</tspan></text><text class="col" style="animation-duration:8.6s;animation-delay:-6.8s;opacity:0.38" x="318" y="-250"><tspan x="318" dy="16">=</tspan><tspan x="318" dy="16">ｵ</tspan><tspan x="318" dy="16">D</tspan><tspan x="318" dy="16">:</tspan><tspan x="318" dy="16">0</tspan><tspan x="318" dy="16">E</tspan><tspan x="318" dy="16">:</tspan><tspan x="318" dy="16">#</tspan><tspan x="318" dy="16">C</tspan><tspan x="318" dy="16">ｵ</tspan><tspan x="318" dy="16">;</tspan></text><text class="col" style="animation-duration:6.7s;animation-delay:-4.5s;opacity:0.54" x="340" y="-250"><tspan x="340" dy="16">ｵ</tspan><tspan x="340" dy="16">/</tspan><tspan x="340" dy="16">:</tspan><tspan x="340" dy="16">#</tspan><tspan x="340" dy="16">D</tspan><tspan x="340" dy="16">#</tspan><tspan x="340" dy="16">F</tspan><tspan x="340" dy="16">;</tspan></text><text class="col" style="animation-duration:6.4s;animation-delay:-1.7s;opacity:0.52" x="362" y="-250"><tspan x="362" dy="16">F</tspan><tspan x="362" dy="16">%</tspan><tspan x="362" dy="16">F</tspan><tspan x="362" dy="16">E</tspan><tspan x="362" dy="16">:</tspan><tspan x="362" dy="16">=</tspan><tspan x="362" dy="16">#</tspan><tspan x="362" dy="16">0</tspan><tspan x="362" dy="16">0</tspan><tspan x="362" dy="16">/</tspan></text><text class="col" style="animation-duration:7.1s;animation-delay:-8.1s;opacity:0.63" x="384" y="-250"><tspan x="384" dy="16">+</tspan><tspan x="384" dy="16">#</tspan><tspan x="384" dy="16">#</tspan><tspan x="384" dy="16">A</tspan><tspan x="384" dy="16">F</tspan><tspan x="384" dy="16">B</tspan><tspan x="384" dy="16">F</tspan><tspan x="384" dy="16">=</tspan><tspan x="384" dy="16">E</tspan><tspan x="384" dy="16">$</tspan><tspan x="384" dy="16">E</tspan><tspan x="384" dy="16">=</tspan></text><text class="col" style="animation-duration:4.4s;animation-delay:-8.5s;opacity:0.57" x="406" y="-250"><tspan x="406" dy="16">ｳ</tspan><tspan x="406" dy="16">#</tspan><tspan x="406" dy="16">ｳ</tspan><tspan x="406" dy="16">A</tspan><tspan x="406" dy="16">ｴ</tspan><tspan x="406" dy="16">B</tspan><tspan x="406" dy="16">%</tspan><tspan x="406" dy="16">ｵ</tspan><tspan x="406" dy="16">E</tspan><tspan x="406" dy="16">=</tspan><tspan x="406" dy="16">D</tspan><tspan x="406" dy="16">*</tspan><tspan x="406" dy="16">ｳ</tspan><tspan x="406" dy="16">$</tspan></text><text class="col" style="animation-duration:7.3s;animation-delay:-3.2s;opacity:0.50" x="428" y="-250"><tspan x="428" dy="16">%</tspan><tspan x="428" dy="16">A</tspan><tspan x="428" dy="16">D</tspan><tspan x="428" dy="16">D</tspan><tspan x="428" dy="16">C</tspan><tspan x="428" dy="16">0</tspan><tspan x="428" dy="16">C</tspan><tspan x="428" dy="16">ｱ</tspan><tspan x="428" dy="16">+</tspan><tspan x="428" dy="16">ｳ</tspan><tspan x="428" dy="16">C</tspan><tspan x="428" dy="16">ｲ</tspan><tspan x="428" dy="16">ｲ</tspan><tspan x="428" dy="16">=</tspan></text><text class="col" style="animation-duration:4.1s;animation-delay:-1.9s;opacity:0.48" x="450" y="-250"><tspan x="450" dy="16">0</tspan><tspan x="450" dy="16">0</tspan><tspan x="450" dy="16">ｳ</tspan><tspan x="450" dy="16">B</tspan><tspan x="450" dy="16">:</tspan><tspan x="450" dy="16">C</tspan><tspan x="450" dy="16">*</tspan><tspan x="450" dy="16">E</tspan><tspan x="450" dy="16">E</tspan></text><text class="col" style="animation-duration:4.7s;animation-delay:-1.4s;opacity:0.48" x="472" y="-250"><tspan x="472" dy="16">/</tspan><tspan x="472" dy="16">;</tspan><tspan x="472" dy="16">*</tspan><tspan x="472" dy="16">C</tspan><tspan x="472" dy="16">1</tspan><tspan x="472" dy="16">#</tspan><tspan x="472" dy="16">+</tspan><tspan x="472" dy="16">ｴ</tspan><tspan x="472" dy="16">ｱ</tspan><tspan x="472" dy="16">:</tspan><tspan x="472" dy="16">*</tspan><tspan x="472" dy="16">:</tspan></text><text class="col" style="animation-duration:6.7s;animation-delay:-4.3s;opacity:0.60" x="494" y="-250"><tspan x="494" dy="16">D</tspan><tspan x="494" dy="16">ｲ</tspan><tspan x="494" dy="16">0</tspan><tspan x="494" dy="16">C</tspan><tspan x="494" dy="16">D</tspan><tspan x="494" dy="16">C</tspan><tspan x="494" dy="16">=</tspan><tspan x="494" dy="16">ｲ</tspan><tspan x="494" dy="16">B</tspan><tspan x="494" dy="16">;</tspan><tspan x="494" dy="16">1</tspan><tspan x="494" dy="16">$</tspan><tspan x="494" dy="16">ｴ</tspan><tspan x="494" dy="16">:</tspan></text><text class="col" style="animation-duration:6.8s;animation-delay:-6.8s;opacity:0.66" x="516" y="-250"><tspan x="516" dy="16">F</tspan><tspan x="516" dy="16">E</tspan><tspan x="516" dy="16">/</tspan><tspan x="516" dy="16">1</tspan><tspan x="516" dy="16">B</tspan><tspan x="516" dy="16">:</tspan><tspan x="516" dy="16">+</tspan></text><text class="col" style="animation-duration:7.5s;animation-delay:-7.9s;opacity:0.67" x="538" y="-250"><tspan x="538" dy="16">$</tspan><tspan x="538" dy="16">ｲ</tspan><tspan x="538" dy="16">:</tspan><tspan x="538" dy="16">ｲ</tspan><tspan x="538" dy="16">:</tspan><tspan x="538" dy="16">E</tspan><tspan x="538" dy="16">ｵ</tspan><tspan x="538" dy="16">/</tspan><tspan x="538" dy="16">+</tspan><tspan x="538" dy="16">:</tspan><tspan x="538" dy="16">;</tspan><tspan x="538" dy="16">=</tspan><tspan x="538" dy="16">:</tspan><tspan x="538" dy="16">F</tspan></text><text class="col" style="animation-duration:5.2s;animation-delay:-0.7s;opacity:0.55" x="560" y="-250"><tspan x="560" dy="16">;</tspan><tspan x="560" dy="16">E</tspan><tspan x="560" dy="16">+</tspan><tspan x="560" dy="16">C</tspan><tspan x="560" dy="16">*</tspan><tspan x="560" dy="16">B</tspan><tspan x="560" dy="16">%</tspan><tspan x="560" dy="16">+</tspan><tspan x="560" dy="16">$</tspan><tspan x="560" dy="16">A</tspan><tspan x="560" dy="16">ｴ</tspan></text><text class="col" style="animation-duration:8.8s;animation-delay:-2.0s;opacity:0.68" x="582" y="-250"><tspan x="582" dy="16">C</tspan><tspan x="582" dy="16">ｵ</tspan><tspan x="582" dy="16">ｳ</tspan><tspan x="582" dy="16">ｴ</tspan><tspan x="582" dy="16">#</tspan><tspan x="582" dy="16">C</tspan><tspan x="582" dy="16">/</tspan><tspan x="582" dy="16">C</tspan></text><text class="col" style="animation-duration:5.6s;animation-delay:-6.5s;opacity:0.26" x="604" y="-250"><tspan x="604" dy="16">=</tspan><tspan x="604" dy="16">D</tspan><tspan x="604" dy="16">ｴ</tspan><tspan x="604" dy="16">F</tspan><tspan x="604" dy="16">D</tspan><tspan x="604" dy="16">ｵ</tspan><tspan x="604" dy="16">*</tspan><tspan x="604" dy="16">:</tspan><tspan x="604" dy="16">%</tspan><tspan x="604" dy="16">$</tspan><tspan x="604" dy="16">*</tspan><tspan x="604" dy="16">E</tspan><tspan x="604" dy="16">#</tspan></text><text class="col" style="animation-duration:5.3s;animation-delay:-0.4s;opacity:0.60" x="626" y="-250"><tspan x="626" dy="16">+</tspan><tspan x="626" dy="16">ｵ</tspan><tspan x="626" dy="16">0</tspan><tspan x="626" dy="16">%</tspan><tspan x="626" dy="16">$</tspan><tspan x="626" dy="16">:</tspan><tspan x="626" dy="16">ｲ</tspan><tspan x="626" dy="16">|</tspan><tspan x="626" dy="16">:</tspan><tspan x="626" dy="16">A</tspan><tspan x="626" dy="16">B</tspan><tspan x="626" dy="16">F</tspan><tspan x="626" dy="16">B</tspan><tspan x="626" dy="16">A</tspan></text><text class="col" style="animation-duration:5.6s;animation-delay:-2.5s;opacity:0.61" x="648" y="-250"><tspan x="648" dy="16">C</tspan><tspan x="648" dy="16">*</tspan><tspan x="648" dy="16">ｴ</tspan><tspan x="648" dy="16">/</tspan><tspan x="648" dy="16">%</tspan><tspan x="648" dy="16">C</tspan><tspan x="648" dy="16">;</tspan><tspan x="648" dy="16">:</tspan><tspan x="648" dy="16">ｱ</tspan><tspan x="648" dy="16">=</tspan><tspan x="648" dy="16">ｵ</tspan></text><text class="col" style="animation-duration:8.3s;animation-delay:-0.6s;opacity:0.64" x="670" y="-250"><tspan x="670" dy="16">*</tspan><tspan x="670" dy="16">A</tspan><tspan x="670" dy="16">/</tspan><tspan x="670" dy="16">0</tspan><tspan x="670" dy="16">ｳ</tspan><tspan x="670" dy="16">A</tspan><tspan x="670" dy="16">/</tspan><tspan x="670" dy="16">A</tspan><tspan x="670" dy="16">ｲ</tspan></text><text class="col" style="animation-duration:4.3s;animation-delay:-1.8s;opacity:0.39" x="692" y="-250"><tspan x="692" dy="16">0</tspan><tspan x="692" dy="16">$</tspan><tspan x="692" dy="16">;</tspan><tspan x="692" dy="16">*</tspan><tspan x="692" dy="16">/</tspan><tspan x="692" dy="16">ｲ</tspan><tspan x="692" dy="16">C</tspan><tspan x="692" dy="16">1</tspan><tspan x="692" dy="16">:</tspan><tspan x="692" dy="16">ｵ</tspan><tspan x="692" dy="16">F</tspan><tspan x="692" dy="16">B</tspan><tspan x="692" dy="16">D</tspan><tspan x="692" dy="16">/</tspan></text><text class="col" style="animation-duration:4.2s;animation-delay:-0.2s;opacity:0.48" x="714" y="-250"><tspan x="714" dy="16">:</tspan><tspan x="714" dy="16">E</tspan><tspan x="714" dy="16">|</tspan><tspan x="714" dy="16">+</tspan><tspan x="714" dy="16">:</tspan><tspan x="714" dy="16">ｴ</tspan><tspan x="714" dy="16">D</tspan><tspan x="714" dy="16">/</tspan><tspan x="714" dy="16">#</tspan><tspan x="714" dy="16">0</tspan><tspan x="714" dy="16">/</tspan></text><text class="col" style="animation-duration:6.7s;animation-delay:-8.0s;opacity:0.69" x="736" y="-250"><tspan x="736" dy="16">:</tspan><tspan x="736" dy="16">=</tspan><tspan x="736" dy="16">F</tspan><tspan x="736" dy="16">+</tspan><tspan x="736" dy="16">B</tspan><tspan x="736" dy="16">ｴ</tspan><tspan x="736" dy="16">ｳ</tspan><tspan x="736" dy="16">*</tspan><tspan x="736" dy="16">ｴ</tspan><tspan x="736" dy="16">=</tspan></text><text class="col" style="animation-duration:8.2s;animation-delay:-0.1s;opacity:0.53" x="758" y="-250"><tspan x="758" dy="16">ｵ</tspan><tspan x="758" dy="16">E</tspan><tspan x="758" dy="16">F</tspan><tspan x="758" dy="16">$</tspan><tspan x="758" dy="16">E</tspan><tspan x="758" dy="16">ｵ</tspan><tspan x="758" dy="16">ｳ</tspan><tspan x="758" dy="16">C</tspan><tspan x="758" dy="16">%</tspan><tspan x="758" dy="16">#</tspan><tspan x="758" dy="16">1</tspan></text><text class="col" style="animation-duration:7.5s;animation-delay:-0.4s;opacity:0.33" x="780" y="-250"><tspan x="780" dy="16">*</tspan><tspan x="780" dy="16">D</tspan><tspan x="780" dy="16">1</tspan><tspan x="780" dy="16">A</tspan><tspan x="780" dy="16">ｴ</tspan><tspan x="780" dy="16">%</tspan><tspan x="780" dy="16">:</tspan><tspan x="780" dy="16">ｴ</tspan><tspan x="780" dy="16">|</tspan><tspan x="780" dy="16">ｲ</tspan><tspan x="780" dy="16">F</tspan></text><text class="col" style="animation-duration:5.8s;animation-delay:-0.0s;opacity:0.42" x="802" y="-250"><tspan x="802" dy="16">+</tspan><tspan x="802" dy="16">0</tspan><tspan x="802" dy="16">/</tspan><tspan x="802" dy="16">#</tspan><tspan x="802" dy="16">$</tspan><tspan x="802" dy="16">;</tspan><tspan x="802" dy="16">$</tspan><tspan x="802" dy="16">F</tspan><tspan x="802" dy="16">1</tspan><tspan x="802" dy="16">|</tspan><tspan x="802" dy="16">E</tspan></text><text class="col" style="animation-duration:6.0s;animation-delay:-2.7s;opacity:0.53" x="824" y="-250"><tspan x="824" dy="16">/</tspan><tspan x="824" dy="16">:</tspan><tspan x="824" dy="16">ｳ</tspan><tspan x="824" dy="16">E</tspan><tspan x="824" dy="16">F</tspan><tspan x="824" dy="16">:</tspan><tspan x="824" dy="16">0</tspan><tspan x="824" dy="16">A</tspan><tspan x="824" dy="16">/</tspan><tspan x="824" dy="16">A</tspan><tspan x="824" dy="16">C</tspan><tspan x="824" dy="16">%</tspan><tspan x="824" dy="16">ｱ</tspan><tspan x="824" dy="16">1</tspan></text><text class="col" style="animation-duration:7.6s;animation-delay:-4.4s;opacity:0.38" x="846" y="-250"><tspan x="846" dy="16">ｱ</tspan><tspan x="846" dy="16">:</tspan><tspan x="846" dy="16">C</tspan><tspan x="846" dy="16">ｴ</tspan><tspan x="846" dy="16">ｵ</tspan><tspan x="846" dy="16">ｲ</tspan><tspan x="846" dy="16">%</tspan><tspan x="846" dy="16">$</tspan></text><text class="col" style="animation-duration:7.8s;animation-delay:-5.1s;opacity:0.62" x="868" y="-250"><tspan x="868" dy="16">1</tspan><tspan x="868" dy="16">ｵ</tspan><tspan x="868" dy="16">:</tspan><tspan x="868" dy="16">ｳ</tspan><tspan x="868" dy="16">*</tspan><tspan x="868" dy="16">ｵ</tspan><tspan x="868" dy="16">:</tspan><tspan x="868" dy="16">C</tspan><tspan x="868" dy="16">:</tspan></text><text class="col" style="animation-duration:4.4s;animation-delay:-0.4s;opacity:0.54" x="890" y="-250"><tspan x="890" dy="16">ｴ</tspan><tspan x="890" dy="16">ｱ</tspan><tspan x="890" dy="16">ｵ</tspan><tspan x="890" dy="16">ｴ</tspan><tspan x="890" dy="16">ｵ</tspan><tspan x="890" dy="16">ｳ</tspan><tspan x="890" dy="16">F</tspan></text>
<rect width="900" height="260" fill="url(#fade)"/>
<rect class="scan" width="900" height="3" fill="#00ff9c" opacity="0.18"/>

  <g font-family="JetBrains Mono, Fira Code, Consolas, monospace" text-anchor="middle" font-weight="700">
    <text class="gl1" x="450.0" y="140.0" font-size="64" fill="#ff2e63" letter-spacing="10">RACHAN</text>
    <text class="gl2" x="450.0" y="140.0" font-size="64" fill="#08f7fe" letter-spacing="10">RACHAN</text>
    <text x="450.0" y="140.0" font-size="64" fill="#00ff9c" letter-spacing="10" filter="url(#glow)">RACHAN</text>
    <text x="450.0" y="180.0" font-size="16" fill="#8affc9" letter-spacing="6" opacity="0.9">LINUX · NETWORKING · SECURITY<tspan class="blink">_</tspan></text>
  </g>

<g stroke="#00ff9c" stroke-width="2" fill="none" opacity="0.8">
  <path d="M14,40 V14 H40"/><path d="M860,14 H886 V40"/><path d="M14,220 V246 H40"/><path d="M886,220 V246 H860"/>
</g>
<g font-family="JetBrains Mono, Fira Code, Consolas, monospace" font-size="11" fill="#00ff9c">
  <text x="52" y="30"><tspan style="animation:bl 1.4s infinite steps(1)">●</tspan> SYS//ONLINE</text>
  <text x="848" y="30" text-anchor="end">ENC: AES-256 · TUNNEL: UP</text>
  <text x="52" y="242" opacity="0.7">LAT 27.7172 N · LON 85.3240 E</text>
  <text x="848" y="242" text-anchor="end" opacity="0.7">UPTIME <tspan>∞</tspan></text>
</g>
</svg>